# xmcd
# Track frame offsets:
# 150
# 17796
# 31423
# 45273
# 61241
# 73635
# 84084
# 95635
# 108514
# 122838
# 134585
# 149919
# 165808
#
# Disc length: 2440 seconds
# Revision: 0
# Processed by: cddbd v1.5.2PL0 Copyright (c) Steve Scherf et al.
# Submitted via: VisiTrax 2.10.0.248 - For more info visit www.synapsa.com
#
DISCID=ae09860d
DTITLE=Dan Schafer - Genesis-For Every Season
DYEAR=1900
DGENRE=
TTITLE0=He's A Miracle
TTITLE1=What Child Is This
TTITLE2=Great Is Thy Faithfulness
TTITLE3=Neath The Light of Your Love
TTITLE4=Away In A Manger
TTITLE5=I Saw The Light
TTITLE6=The Marvelous
TTITLE7=One Day At A Time
TTITLE8=I Won't Take Less Than Your Love
TTITLE9=Mary's Little Boy Child
TTITLE10=Driven Nails
TTITLE11=What A Difference You've Made In My Life
TTITLE12=Will The Circle Be Unbroken
EXTD=
EXTT0=
EXTT1=
EXTT2=
EXTT3=
EXTT4=
EXTT5=
EXTT6=
EXTT7=
EXTT8=
EXTT9=
EXTT10=
EXTT11=
EXTT12=
PLAYORDER=
